<svg xmlns="http://www.w3.org/2000/svg" width="185" height="179" viewBox="0 0 185 179">
    <g fill="none" fill-rule="evenodd" opacity=".315">
        <g fill="#a3ddff" fill-rule="nonzero">
            <g>
                <g opacity=".82" transform="translate(-954 -1797) translate(954 1797)">
                    <path d="M3.118 28.028c0 .786-.665 1.447-1.455 1.447S.208 28.814.208 28.028c0-.785.665-1.447 1.455-1.447.831 0 1.455.62 1.455 1.447zM3.201 57.793c0 .826-.665 1.53-1.538 1.53-.832 0-1.538-.662-1.538-1.53 0-.827.665-1.53 1.538-1.53s1.538.703 1.538 1.53z"/>
                    <ellipse cx="1.663" cy="87.598" rx="1.58" ry="1.571"/>
                    <ellipse cx="1.663" cy="117.363" rx="1.58" ry="1.571"/>
                    <path d="M3.367 147.169c0 .91-.748 1.653-1.663 1.653-.914 0-1.662-.744-1.662-1.653 0-.91.748-1.654 1.662-1.654.915-.041 1.663.703 1.663 1.654zM28.394 28.028c0 .786-.665 1.447-1.455 1.447s-1.455-.661-1.455-1.447c0-.785.665-1.447 1.455-1.447s1.455.62 1.455 1.447z"/>
                    <ellipse cx="26.939" cy="117.363" rx="1.58" ry="1.571"/>
                    <path d="M28.644 147.169c0 .91-.748 1.653-1.663 1.653s-1.663-.744-1.663-1.653c0-.91.748-1.654 1.663-1.654.915-.041 1.663.703 1.663 1.654zM28.644 176.933c0 .91-.748 1.654-1.663 1.654s-1.663-.745-1.663-1.654c0-.91.748-1.654 1.663-1.654s1.663.745 1.663 1.654zM54.627 28.028c0 .786-.665 1.447-1.455 1.447s-1.455-.661-1.455-1.447c0-.785.665-1.447 1.455-1.447s1.455.62 1.455 1.447zM54.669 57.793c0 .826-.666 1.53-1.539 1.53-.831 0-1.538-.662-1.538-1.53 0-.827.665-1.53 1.538-1.53s1.539.703 1.539 1.53z"/>
                    <ellipse cx="53.172" cy="87.598" rx="1.58" ry="1.571"/>
                    <path d="M54.835 147.169c0 .91-.748 1.653-1.663 1.653s-1.663-.744-1.663-1.653c0-.91.748-1.654 1.663-1.654.915-.041 1.663.703 1.663 1.654zM54.835 176.933c0 .91-.748 1.654-1.663 1.654s-1.663-.745-1.663-1.654c0-.91.748-1.654 1.663-1.654s1.663.745 1.663 1.654zM79.862 28.028c0 .786-.665 1.447-1.455 1.447s-1.455-.661-1.455-1.447c0-.785.665-1.447 1.455-1.447.831 0 1.455.62 1.455 1.447zM79.945 57.793c0 .826-.665 1.53-1.538 1.53-.832 0-1.538-.662-1.538-1.53 0-.827.665-1.53 1.538-1.53s1.538.703 1.538 1.53zM80.028 87.598c0 .869-.707 1.571-1.58 1.571-.873 0-1.58-.702-1.58-1.57 0-.869.707-1.572 1.58-1.572.873-.04 1.58.662 1.58 1.571zM80.028 117.363c0 .868-.707 1.57-1.58 1.57-.873 0-1.58-.702-1.58-1.57 0-.868.707-1.571 1.58-1.571.873 0 1.58.703 1.58 1.57zM80.111 147.169c0 .91-.748 1.653-1.663 1.653-.914 0-1.663-.744-1.663-1.653 0-.91.749-1.654 1.663-1.654.915-.041 1.663.703 1.663 1.654zM80.111 176.933c0 .91-.748 1.654-1.663 1.654-.914 0-1.663-.745-1.663-1.654 0-.91.749-1.654 1.663-1.654.915 0 1.663.745 1.663 1.654zM106.178 58c0 .826-.666 1.529-1.539 1.529-.831 0-1.538-.662-1.538-1.53 0-.826.665-1.53 1.538-1.53.832.042 1.539.704 1.539 1.53z"/>
                    <ellipse cx="104.639" cy="87.805" rx="1.58" ry="1.571"/>
                    <ellipse cx="104.639" cy="117.57" rx="1.58" ry="1.571"/>
                    <path d="M106.302 177.14c0 .91-.748 1.653-1.663 1.653-.914 0-1.663-.744-1.663-1.653 0-.91.749-1.654 1.663-1.654.915 0 1.663.744 1.663 1.654z"/>
                    <ellipse cx="130.872" cy="27.904" rx="1.455" ry="1.447"/>
                    <path d="M132.369 57.71c0 .827-.666 1.53-1.539 1.53-.831 0-1.538-.662-1.538-1.53 0-.827.665-1.53 1.538-1.53s1.539.662 1.539 1.53z"/>
                    <ellipse cx="130.872" cy="87.474" rx="1.58" ry="1.571"/>
                    <ellipse cx="130.872" cy="117.28" rx="1.58" ry="1.571"/>
                    <path d="M132.535 147.045c0 .909-.748 1.653-1.663 1.653s-1.663-.744-1.663-1.653c0-.91.748-1.654 1.663-1.654s1.663.744 1.663 1.654zM132.535 176.85c0 .91-.748 1.654-1.663 1.654s-1.663-.744-1.663-1.654c0-.91.748-1.653 1.663-1.653.915-.042 1.663.703 1.663 1.653z"/>
                    <ellipse cx="156.107" cy="27.904" rx="1.455" ry="1.447"/>
                    <path d="M157.645 57.71c0 .827-.665 1.53-1.538 1.53s-1.538-.662-1.538-1.53c0-.827.665-1.53 1.538-1.53s1.538.662 1.538 1.53z"/>
                    <ellipse cx="156.107" cy="87.474" rx="1.58" ry="1.571"/>
                    <ellipse cx="156.107" cy="117.28" rx="1.58" ry="1.571"/>
                    <path d="M157.811 147.045c0 .909-.748 1.653-1.663 1.653-.914 0-1.663-.744-1.663-1.653 0-.91.749-1.654 1.663-1.654.915 0 1.663.744 1.663 1.654zM183.794 28.11c0 .786-.665 1.448-1.455 1.448s-1.455-.662-1.455-1.447c0-.786.665-1.447 1.455-1.447s1.455.661 1.455 1.447zM183.878 57.917c0 .826-.666 1.53-1.539 1.53-.831 0-1.538-.662-1.538-1.53 0-.827.665-1.53 1.538-1.53.832 0 1.539.661 1.539 1.53z"/>
                    <ellipse cx="182.339" cy="87.681" rx="1.58" ry="1.571"/>
                    <ellipse cx="182.339" cy="117.487" rx="1.58" ry="1.571"/>
                    <ellipse cx="2.494" cy="2.026" rx="1.58" ry="1.571"/>
                    <ellipse cx="27.771" cy="2.026" rx="1.58" ry="1.571"/>
                    <ellipse cx="79.28" cy="2.026" rx="1.58" ry="1.571"/>
                    <ellipse cx="105.471" cy="2.232" rx="1.58" ry="1.571"/>
                    <ellipse cx="131.703" cy="1.902" rx="1.58" ry="1.571"/>
                    <ellipse cx="156.98" cy="1.902" rx="1.58" ry="1.571"/>
                    <ellipse cx="183.171" cy="2.108" rx="1.58" ry="1.571"/>
                    <path d="M184.002 147.251c0 .91-.748 1.654-1.663 1.654-.914 0-1.663-.744-1.663-1.654 0-.91.749-1.653 1.663-1.653.915 0 1.663.744 1.663 1.653zM184.002 177.057c0 .91-.748 1.654-1.663 1.654-.914 0-1.663-.744-1.663-1.654 0-.91.749-1.654 1.663-1.654.915-.04 1.663.703 1.663 1.654z"/>
                </g>
            </g>
        </g>
    </g>
</svg>
