<svg xmlns="http://www.w3.org/2000/svg" width="1193" height="15" viewBox="0 0 1193 15">
    <path fill="#3c86f9" fill-rule="evenodd" d="M61 0L43.903 15H29L46.097 0H61zM32 0L14.903 15H0L17.097 0H32zm87 0l-17.097 15H87l17.097-15H119zM90 0L72.903 15H58L75.097 0H90zm87 0l-17.097 15H145l17.097-15H177zm-29 0l-17.097 15H116l17.097-15H148zm87 0l-17.097 15H203l17.097-15H235zm-29 0l-17.097 15H174l17.097-15H206zm87 0l-17.097 15H261l17.097-15H293zm-29 0l-17.097 15H232l17.097-15H264zm87 0l-17.097 15H319l17.097-15H351zm-29 0l-17.097 15H290l17.097-15H322zm87 0l-17.097 15H377l17.097-15H409zm-29 0l-17.097 15H348l17.097-15H380zm87 0l-17.097 15H435l17.097-15H467zm-29 0l-17.097 15H406l17.097-15H438zm87 0l-17.097 15H493l17.097-15H525zm-29 0l-17.097 15H464l17.097-15H496zm87 0l-17.097 15H551l17.097-15H583zm-29 0l-17.097 15H522l17.097-15H554zm87 0l-17.097 15H609l17.097-15H641zm-29 0l-17.097 15H580l17.097-15H612zm87 0l-17.097 15H667l17.097-15H699zm-29 0l-17.097 15H638l17.097-15H670zm87 0l-17.097 15H725l17.097-15H757zm-29 0l-17.097 15H696l17.097-15H728zm87 0l-17.097 15H783l17.097-15H815zm-29 0l-17.097 15H754l17.097-15H786zm87 0l-17.097 15H841l17.097-15H873zm-29 0l-17.097 15H812l17.097-15H844zm87 0l-17.097 15H899l17.097-15H931zm-29 0l-17.097 15H870l17.097-15H902zm58 0l-17.097 15H928l17.097-15H960zm58 0l-17.097 15H986l17.097-15H1018zm-29 0l-17.097 15H957l17.097-15H989zm87 0l-17.097 15H1044l17.097-15H1076zm-29 0l-17.097 15H1015l17.097-15H1047zm58 0l-17.097 15H1073l17.097-15H1105zm29 0l-17.097 15H1102l17.097-15H1134zm29 0l-17.097 15H1131l17.097-15H1163zm30 0l-17.097 15H1161l17.097-15H1193z"/>
</svg>
