<svg xmlns="http://www.w3.org/2000/svg" width="85" height="40" viewBox="0 0 85 40">
    <g fill="none" fill-rule="evenodd">
        <g fill="#FFF" fill-rule="nonzero">
            <g>
                <path d="M22.512 0h3.836c.202 0 .37.171.37.377v39.246c0 .206-.168.377-.37.377h-3.836c-.202 0-.37-.171-.37-.377V.377c0-.206.168-.377.37-.377zM48.96 32.295v.993c0 .445-.067 1.027-.236 1.78-.134.72-.504 1.473-1.144 2.192-.606.72-1.514 1.37-2.76 1.918-1.244.514-2.927.788-5.08.788-2.154 0-3.836-.274-5.081-.788-1.246-.514-2.12-1.164-2.76-1.918-.605-.719-1.01-1.472-1.144-2.226-.134-.753-.235-1.301-.235-1.746V10.925c0-.206.168-.377.37-.377h3.836c.202 0 .37.171.37.377v20.924c0 .685.1 1.199.202 1.576.1.41.303.787.572 1.13.303.377.74.65 1.346.89.572.24 1.38.377 2.39.377 1.042 0 1.883-.137 2.49-.377.605-.24 1.076-.513 1.379-.856.336-.342.538-.685.64-1.096.1-.41.235-.719.235-1.678v-20.89c0-.206.168-.377.37-.377h3.836c.202 0 .37.171.37.377l.034 21.37zm13.123-21.713h2.591c.236 0 .404.24.337.445l-.875 3.425c-.034.171-.202.274-.337.274h-1.817c-.975 0-1.75.137-2.355.411-.572.274-1.077.548-1.38.925-.303.376-.505.719-.605 1.096-.101.41-.135.753-.135 1.095v21.37c0 .206-.168.377-.37.377h-3.87c-.202 0-.37-.171-.37-.377V17.295c0-.411.067-.994.235-1.747.135-.753.505-1.473 1.145-2.226.605-.72 1.514-1.37 2.759-1.918 1.178-.548 2.894-.822 5.047-.822zm-52.931 0c3.13 0 5.451.617 6.932 1.884 1.447 1.267 2.187 2.842 2.187 4.726v16.096c0 .65-.135 1.37-.37 2.157-.236.788-.673 1.507-1.346 2.158-.673.65-1.615 1.198-2.793 1.644-1.178.445-2.726.65-4.61.65-1.918 0-3.432-.24-4.61-.65-1.178-.411-2.12-.994-2.793-1.644-.673-.65-1.144-1.37-1.346-2.158-.236-.787-.37-1.507-.37-2.157v-2.569c0-1.37.37-2.637 1.043-3.767.706-1.13 1.682-1.952 2.961-2.397.64-.24 1.346-.445 2.187-.754.808-.308 1.615-.548 2.39-.856.773-.274 1.413-.513 2.018-.719.572-.24.943-.342 1.077-.41.135-.07.337-.172.539-.31.235-.136.437-.342.673-.547.235-.274.403-.548.538-.856.168-.343.236-.72.236-1.165v-1.027c0-.377-.068-.72-.236-1.13-.135-.411-.404-.72-.74-1.062-.337-.342-.842-.582-1.414-.787-.572-.206-1.312-.309-2.22-.309-1.784 0-2.962.377-3.635 1.13-.538.651-.875 1.439-.942 2.363 0 .206-.168.343-.37.343H.37c-.202 0-.37-.171-.37-.377v-.959c0-.924.168-1.78.505-2.568.336-.788.875-1.507 1.649-2.123.74-.583 1.682-1.096 2.86-1.405 1.144-.24 2.524-.445 4.139-.445zm4.61 14.452c-.067.377-.27.617-.539.822-.302.206-.538.308-.807.411-.539.206-1.144.411-1.75.617-.606.24-1.211.445-1.75.616-.64.24-1.278.445-1.817.65-.437.206-.841.446-1.245.754-.336.308-.606.65-.875 1.13-.269.48-.404 1.028-.404 1.713 0 1.37.337 2.397.976 3.082.64.65 1.851 1.027 3.6 1.027 1.784 0 2.996-.377 3.669-1.061.639-.72.976-1.713.976-3.014l-.034-6.747zM75.88 10.582c3.13 0 5.451.617 6.932 1.884C84.26 13.733 85 15.308 85 17.192v16.096c0 .65-.135 1.37-.37 2.157-.236.788-.673 1.507-1.346 2.158-.673.65-1.615 1.198-2.793 1.644-1.178.445-2.726.65-4.61.65-1.918 0-3.432-.24-4.61-.65-1.178-.411-2.12-.994-2.793-1.644-.673-.65-1.144-1.37-1.346-2.158-.236-.787-.37-1.507-.37-2.157v-2.569c0-1.37.37-2.637 1.043-3.767.706-1.13 1.682-1.952 2.961-2.397.64-.24 1.346-.445 2.187-.754.808-.308 1.615-.548 2.39-.856.773-.274 1.413-.513 2.018-.719.572-.24.943-.342 1.077-.41.135-.07.337-.172.539-.31.235-.136.437-.342.673-.547.235-.274.403-.548.538-.856.168-.343.236-.72.236-1.165v-1.027c0-.377-.068-.72-.236-1.13-.135-.411-.404-.72-.74-1.062-.37-.342-.842-.582-1.414-.787-.572-.206-1.312-.309-2.22-.309-1.784 0-2.962.377-3.635 1.13-.538.651-.875 1.439-.942 2.363 0 .206-.168.343-.37.343h-3.87c-.202 0-.37-.171-.37-.377v-.959c0-.924.168-1.78.505-2.568.336-.788.875-1.507 1.649-2.123.74-.583 1.682-1.096 2.86-1.405 1.245-.24 2.625-.445 4.24-.445zm4.576 14.452c-.067.377-.269.617-.538.822-.303.206-.539.308-.808.411-.538.206-1.144.411-1.75.617-.605.24-1.211.445-1.75.616-.639.24-1.278.445-1.816.65-.438.206-.842.446-1.246.754-.336.308-.605.65-.874 1.13-.27.445-.404 1.028-.404 1.713 0 1.37.336 2.397.976 3.082.639.65 1.85 1.027 3.6 1.027 1.784 0 2.995-.377 3.668-1.061.64-.72.976-1.713.976-3.014l-.034-6.747z" transform="translate(-149 -16) translate(149 16)"/>
            </g>
        </g>
    </g>
</svg>
